<svg height="511pt" viewBox="-76 0 511 511.998" width="511pt" xmlns="http://www.w3.org/2000/svg"><path d="m357.710938 376.710938c-.515626-5.484376-1.171876-11.0625-1.957032-16.570313-1.285156-8.992187-2.886718-18.796875-4.707031-29.058594-.003906-.011719-.003906-.019531-.003906-.03125-2.0625-11.636719-4.410157-23.886719-6.894531-36.230469 0-.015624-.003907-.035156-.003907-.050781l-.078125-.363281c-2.578125-12.8125-5.304687-25.71875-8.003906-38.144531l-.238281-1.128907c-.007813-.039062-.027344-.078124-.035157-.117187-3.457031-15.875-6.867187-30.921875-9.878906-43.929687-.035156-.296876-.078125-.589844-.148437-.882813l-8.59375-36.25c-.054688-.222656-.132813-.4375-.207031-.652344-.902344-3.722656-1.429688-5.847656-1.46875-6.007812-5.542969-21.988281-18.570313-50.355469-49.15625-60.617188-1.578126-.527343-3.136719-.984375-4.671876-1.378906-1.855468-.476563-3.671874-.859375-5.4375-1.167969-.691406-2.253906-1.707031-5.019531-3.097656-8.53125-2.253906-5.6875-4.796875-11.449218-5.429687-12.785156-4.355469-9.179688-10.828125-17.65625-19.78125-25.917969-4.339844-4.007812-8.933594-7.679687-13.554688-11.1875 26.425781-22.574219 31.714844-31.128906 33.199219-36.046875.683594-2.269531.253906-4.730468-1.160156-6.636718-1.414063-1.902344-3.644532-3.023438-6.015625-3.023438h-53.527344c-2.296875 0-4.464844 1.050781-5.886719 2.851562-2.070312 2.628907-4.304687 5.300782-6.78125 8.125-2.480468-2.820312-4.71875-5.5-6.789062-8.125-1.421875-1.800781-3.589844-2.851562-5.882813-2.851562h-53.53125c-2.371093 0-4.601562 1.121094-6.015625 3.023438-1.414062 1.90625-1.84375 4.363281-1.160156 6.636718 1.484375 4.917969 6.789062 13.480469 33.199219 36.042969-4.621094 3.511719-9.210938 7.183594-13.554688 11.191406-8.953125 8.261719-15.425781 16.738281-19.777343 25.917969-.632813 1.332031-3.175782 7.089844-5.433594 12.785156-1.480469 3.746094-2.539063 6.640625-3.226563 8.972656-1.691406.460938-3.410156.992188-5.152343 1.621094-30.347657 10.9375-42.746094 39.585938-47.808594 61.722656-.035156.144532-.5625 2.511719-1.46875 6.644532-.003906.007812-.007813.019531-.007813.027344l-.074219.335937c-1.558593 7.128906-4.1875 19.261719-7.34375 34.363281l-.371093 1.726563c-.011719.0625-.015625.121093-.027344.179687-7.273437 34.914063-17.160156 84.804688-23.335937 125.941406-.015626.117188-.03125.238282-.042969.359376-1.269531 8.457031-2.382813 16.554687-3.289063 24.085937-2.523437 21-3.199218 39.265625-2.070312 55.847656.28125 4.128907 3.855468 7.242188 7.984375 6.96875 4.132812-.28125 7.25-3.855469 6.96875-7.988281-1.0625-15.632812-.40625-32.984375 2-53.042969.117187-.964843.238281-1.941406.359375-2.921875 24.105468 32.695313 56.386718 36.984375 60.578125 37.40625 6.65625 1.132813 12.910156 1.636719 18.777343 1.636719 25.082032 0 43.023438-9.214844 54.371094-17.914063 1.996094-1.53125 3.847656-3.089843 5.5625-4.644531-.160156 1.285157-.320312 2.558594-.480468 3.808594-.683594 5.277344-1.503907 10.582031-2.433594 15.773437-4.78125 26.703126-12.917969 60.253907-33.558594 82.890626-9.269531 10.167968-20.613281 16.152343-32.808594 17.304687-15.011718 1.417969-37.246094-3.070313-48.890625-14.1875-6.207031-5.929687-11.289062-14.050781-15.101562-24.140625-1.460938-3.871094-5.789063-5.828125-9.660157-4.363281-3.871093 1.464843-5.824218 5.789062-4.363281 9.660156 4.613281 12.207031 10.929688 22.195313 18.773438 29.683594 13.761719 13.140625 35.972656 18.597656 53.496093 18.59375 2.492188 0 4.894532-.109375 7.15625-.324219 15.964844-1.507812 30.652344-9.160156 42.472657-22.128906 23.222656-25.46875 32.101562-61.664063 37.238281-90.347656.972656-5.425782 1.828125-10.972657 2.542969-16.488282 1.167969-9.007812 2.242187-18.878906 3.230469-29.246094 0-.015624.003906-.03125.007812-.042968 1.386719-14.269532 2.542969-28.585938 3.546875-42.917969 1.550781 17.136719 3.296875 34.261719 5.21875 50.019531.003906.042969.019531.085938.027344.128906 1.046875 8.589844 2.148437 16.789063 3.300781 24.363282 5.542969 36.40625 14.3125 63.828125 27.605469 86.304687 9.445312 15.980469 20.136719 27.015625 32.679687 33.734375 9.308594 4.984375 20.492188 6.992188 31.492188 6.992188 11.636718 0 23.0625-2.246094 31.839844-5.597656 14.976562-5.722657 27.085937-17.023438 35.011718-32.679688 15.574219-30.746094 14.453125-67.996094 11.738282-97.007812zm-42.082032-143.351563c.027344.121094.054688.242187.082032.363281 1.050781 4.652344 2.09375 9.316406 3.128906 13.984375-2.378906-.40625-4.75-.863281-7.117188-1.34375-.855468-4.019531-1.699218-7.949219-2.527344-11.761719 1.910157-1.976562 3.710938-3.910156 5.398438-5.800781.34375 1.519531.691406 3.039063 1.035156 4.558594zm-5.628906-24.511719c.121094.511719.238281 1.023438.359375 1.535156-6.601563 8.863282-16.226563 18.601563-27.265625 28.425782-5.957031-1.917969-11.800781-3.992188-17.476562-6.179688 17.769531-15.691406 31.761718-30.71875 40.410156-40.628906 1.335937 5.613281 2.664062 11.226562 3.972656 16.847656zm-60.011719 17.347656c-16.542969-7.246093-31.136719-14.984374-42.496093-21.519531l-.585938-6.289062c-1.132812-20.535157 3.671875-35.339844 14.28125-44.003907 7.890625-6.4375 16.421875-7.136718 16.449219-7.140624.441406-.023438.882812-.089844 1.3125-.191407.074219-.019531 7.957031-1.746093 17.164062 1.832031 13.03125 5.0625 22.132813 17.980469 27.042969 38.367188.023438.113281.53125 2.253906 1.398438 5.980469-9 9.554687-20.773438 21.214843-34.566407 32.964843zm-15.832031-136.960937c1.082031 2.28125 3.808594 8.660156 5.835938 13.929687-3.988282.207032-6.847657.695313-8.027344.925782-1.859375.183594-7.765625.941406-15.238282 3.625-3.84375-8.640625-12.398437-24.535156-27.652343-37.304688-.105469-.089844-.21875-.175781-.332031-.257812-.765626-.574219-1.519532-1.140625-2.28125-1.710938 4.910156-3.847656 10.441406-8.25 16.089843-12.871094 5.347657 3.992188 10.449219 7.953126 15.203125 12.339844 7.519532 6.9375 12.882813 13.914063 16.402344 21.324219zm-53.078125 47.703125c-.050781.085938-.097656.175781-.144531.261719-1.253906 2.171875-2.371094 4.394531-3.371094 6.644531-4.722656-11.050781-12.257812-21.410156-23.96875-29.324219-2.246094-1.515625-4.496094-2.835937-6.710938-3.988281 3.746094-7.578125 10.710938-19.089844 21.886719-28.496094.574219-.429687 2.519531-1.890625 5.417969-4.101562 2.902344 2.214844 4.847656 3.671875 5.417969 4.101562 13.113281 11.039063 20.492187 25.148438 23.601562 32.199219-1.132812.703125-2.265625 1.449219-3.398437 2.253906-7.917969 5.609375-13.832032 12.332031-18.214844 19.605469-.171875.28125-.351562.5625-.515625.84375zm-58.285156-121.949219h35.132812c1.859375 2.265625 3.855469 4.589844 6 7.003907-5.371093 5.238281-11.332031 9.878906-17.601562 14.550781-10.160157-8.636719-18.167969-16.015625-23.53125-21.554688zm-8.570313 74.25c3.515625-7.414062 8.882813-14.390625 16.398438-21.328125 6.179687-5.699218 12.925781-10.675781 20.066406-15.945312 9.171875-6.765625 18.660156-13.761719 26.863281-22.445313 5.035157-5.328125 9.203125-10.019531 12.898438-14.53125h35.136719c-11.476563 11.851563-35.027344 32.097657-65.953126 55.160157-.113281.085937-.222656.171874-.332031.261718-13.785156 11.539063-22.097656 25.632813-26.410156 34.617188-5.785156-1.613282-10.167969-2.066406-11.726563-2.1875-1.574218-.273438-6.121093-.933594-12.363281-.75 1.96875-5.03125 4.410157-10.726563 5.421875-12.851563zm-72.882812 140.078125c2.003906 2.152344 4.148437 4.355469 6.457031 6.617188l-1.910156 10.640625c-2.78125.644531-5.574219 1.238281-8.375 1.78125 1.300781-6.578125 2.585937-12.953125 3.828125-19.039063zm-6.851563 34.824219c12.054688-1.992187 23.9375-4.988281 35.425781-8.597656 4.707032 3.847656 9.75 7.816406 15.128907 11.902343-22.023438 8.398438-42.476563 15.167969-54.734375 19.0625zm43.738281 83.566406c-19.117187-7.367187-30.324218-27.574219-26.648437-48.042969l.828125-4.605468c9.808594-3.300782 21.328125-7.324219 33.441406-11.875 4.636719-1.738282 9.125-3.46875 13.476563-5.1875 3.796875 2.734375 7.722656 5.515625 11.789062 8.34375 11.078125 7.699218 21.675781 14.699218 30.609375 20.445312-.121094 1.496094-.242187 3.003906-.371094 4.484375-1.332031 15.433594-10.628906 28.96875-24.261718 35.328125-8.964844 4.179688-19.105469 5.304688-30.136719 3.335938-.25-.046875-.445313-.074219-.703125-.09375-.03125 0-3.300781-.3125-8.023438-2.132813zm82.25 2.671875c-4.035156 6.773438-27.523437 41.589844-79.300781 32.648438-.203125-.035156-.441406-.066406-.648437-.082032-1.546875-.140624-37.960938-3.8125-58.921875-45.851562 1.65625-10.875 3.558593-22.320312 5.597656-33.902344 2.28125-.703125 5.375-1.667968 9.132813-2.867187-3.210938 26.375 11.722656 51.820312 36.5 61.371093 5.882812 2.265626 10.328124 2.894532 11.785156 3.046876 4.316406.753906 8.539062 1.128906 12.660156 1.128906 9.265625 0 18.019531-1.898438 26.144531-5.6875 17.519531-8.171875 29.742188-25.003906 32.488281-44.421875 2.875 1.785156 5.273438 3.257812 7.097657 4.367187-.609375 8.101563-2.507813 29.960938-2.535157 30.25zm3.652344-47.167968c-26.121094-16.238282-93.664062-59.914063-118.960937-92.398438l3.941406-18.445312c19.058594 20.894531 63.257813 64.875 116.46875 88.136718zm-93.425781-109.988282 1.117187-6.214844c4.394532-20.089843 12.980469-33.070312 25.519532-38.582031 9.324218-4.097656 17.730468-2.488281 17.757812-2.484375.46875.109375.777344.144532 1.257813.160156.085937.003907 8.632812.515626 16.660156 6.777344 10.828125 8.445313 15.957031 23.183594 15.25 43.78125-.003906.113282-.089844 2.320313-.25 6.148438-11.222656 6.800781-25.675781 14.890625-42.105469 22.519531-14.011718-11.402344-26.007812-22.765625-35.207031-32.105469zm95.804687 71.226563c-2.1875-1.03125-4.359374-2.085938-6.515624-3.183594.253906-4.101563.488281-8.117187.710937-12.015625 2.375-1.398438 4.617187-2.78125 6.753906-4.15625-.304687 6.449219-.613281 12.898438-.949219 19.355469zm1.792969-38.230469c-8.730469 6.777344-20.609375 13.585938-33.875 20.105469-5.222656-3.433594-10.292969-6.996094-15.175781-10.617188 21.328125-10.375 38.8125-21.121093 49.796875-28.363281-.203125 5.492188-.453125 11.851562-.746094 18.875zm1.472657-40.535156c0 .097656-.03125 1.164062-.089844 3.066406-1.558594 1.09375-3.699219 2.566406-6.371094 4.351562.019531-55.675781-40.023438-61.402343-45.703125-61.929687-5.632813-.882813-45.8125-5.171875-59.503906 48.722656-2.140625-2.371093-3.84375-4.316406-5.074219-5.746093.398438-1.800782.625-2.820313.648438-2.921876 14.367187-62.84375 63.011718-53.996093 65.042968-53.59375.390625.082032.785156.128907 1.179688.148438.121094.003906 12.136718.75 24.140625 8.398438.386719.246093.773437.5 1.160156.761718 16.953125 11.457032 25.222656 31.230469 24.570313 58.742188zm15.4375 2.320312c-2.9375-64.375 46.289062-68.851562 48.355468-69.007812.375-.023438.777344-.085938 1.144532-.164063.675781-.152343 6.34375-1.320312 14.210937-.617187 16.109375 1.445312 41.445313 10.738281 52.023437 52.710937.25.988281.488282 1.984375.730469 2.976563-1.203125 1.464844-2.878906 3.464844-4.976562 5.890625-14.863281-53.644531-54.972657-48.464844-60.589844-47.453125-5.664063.652344-45.53125 7.261718-44.316406 62.855468-2.691407-1.710937-4.859375-3.132812-6.421875-4.179687-.097656-1.816406-.152344-2.863281-.160156-3.011719zm1.246093 21.617188c23.953125 15.039062 78.296875 45.605468 135.789063 53.796875l4.675781 22.269531c-29.515625-8.664062-106.273437-32.699219-139.332031-57.242188zm2.390625 37.675781c2.539063 1.554687 5.21875 3.09375 7.988282 4.625l1.003906 10.789063c-2.507813 1.367187-5.039063 2.695312-7.59375 3.96875-.503906-6.691407-.96875-13.183594-1.398438-19.382813zm2.707032 35.390625c11.085937-5.140625 21.738281-11.203125 31.84375-17.753906 5.796874 2.558594 11.746093 5.039062 17.742187 7.433594-18.972656 13.976562-36.871094 25.964843-47.632813 32.992187zm7.082031 73.742188c-1.308594-10.917969-2.535157-22.457032-3.667969-34.164063 2.011719-1.285156 4.738281-3.042969 8.035156-5.199219.964844 6.421875 2.960938 12.589844 5.972656 18.375 1.910157 3.671875 6.441407 5.097656 10.109376 3.183594 3.671874-1.910156 5.097656-6.4375 3.1875-10.109375-2.628907-5.042969-4.230469-10.484375-4.757813-16.164063l-.433594-4.660156c8.566407-5.796875 18.59375-12.757812 29.050781-20.378906 3.996094-2.910156 7.84375-5.769531 11.570313-8.582031 17.753906 6.570312 34.949219 12.195312 48.59375 16.425781.277344 1.464844.554687 2.929688.828125 4.382812 2.84375 15.230469-2.5 30.757813-13.9375 40.527344-7.800781 6.664063-18.003906 10.589844-28.183594 11.472656-6.1875.535157-18.328125-2.941406-19.675781 6.011719-1.773437 11.789063 18.074219 9.496094 24.648437 8.566407 12.042969-1.703126 23.679688-6.734376 32.945313-14.652344 14.695313-12.550782 21.976563-32.03125 19.441406-51.46875 3.234375.945312 5.9375 1.71875 8.003907 2.300781 1.957031 9.878906 3.839843 19.757813 5.601562 29.617187.011719.066407.023438.132813.035156.195313-2.074218 7.605469-15.402344 47.4375-67.6875 52.660156-.226562.023438-.453125.054688-.679687.101563-.371094.070312-37.300781 6.75-69-28.441406zm133.964843 110.523437c-6.214843 12.273437-15.546874 21.070313-26.988281 25.441406-14.085937 5.378907-36.714843 6.996094-50.90625-.605469-10.054687-5.386718-18.839843-14.589843-26.851562-28.144531-12.28125-20.769531-20.445313-46.488281-25.6875-80.933593-.148438-.960938-.292969-1.933594-.4375-2.917969 22.417969 17.578125 44.972656 20.625 57.882812 20.625 5.5 0 9.25-.550781 10.492188-.761719 35.425781-3.625 55.511719-21.152344 66.136719-35.238281 1.515624-2.007813 2.878906-4.003907 4.117187-5.960938.191406 1.28125.375 2.550781.554687 3.800781.75 5.269532 1.382813 10.601563 1.871094 15.847657 2.527344 27.007812 3.65625 61.515625-10.183594 88.847656zm0 0"/></svg>