<?xml version="1.0" encoding="utf-8"?>
<!-- Generator: Adobe Illustrator 15.1.0, SVG Export Plug-In . SVG Version: 6.00 Build 0)  -->
<!DOCTYPE svg PUBLIC "-//W3C//DTD SVG 1.1//EN" "http://www.w3.org/Graphics/SVG/1.1/DTD/svg11.dtd">
<svg version="1.1" id="Layer_1" xmlns="http://www.w3.org/2000/svg" xmlns:xlink="http://www.w3.org/1999/xlink" x="0px" y="0px"
	 width="26px" height="31px" viewBox="0 0 26 31" enable-background="new 0 0 26 31" xml:space="preserve">
<path d="M0,31V0h26v25H7L0,31z"/>
<g enable-background="new    ">
	<path fill="#FFFFFF" d="M12.016,18.889c-0.272,0.047-0.588,0.08-0.948,0.096c-0.36,0.016-0.7,0.023-1.02,0.023
		c-0.752,0-1.46-0.127-2.124-0.383c-0.664-0.256-1.24-0.656-1.728-1.201c-0.488-0.543-0.873-1.236-1.152-2.076
		c-0.28-0.84-0.42-1.836-0.42-2.988c0-1.088,0.14-2.06,0.42-2.916c0.28-0.855,0.68-1.579,1.2-2.172
		c0.52-0.592,1.14-1.044,1.86-1.355c0.72-0.313,1.52-0.468,2.4-0.468c0.208,0,0.468,0.008,0.78,0.023
		c0.312,0.017,0.556,0.04,0.732,0.072V3.48h1.992v2.137c0.287-0.08,0.627-0.128,1.02-0.145C15.42,5.457,15.744,5.449,16,5.449
		c0.768,0,1.479,0.14,2.136,0.42c0.655,0.279,1.228,0.695,1.716,1.248c0.488,0.552,0.867,1.247,1.141,2.088
		c0.271,0.84,0.407,1.812,0.407,2.916c0,1.136-0.155,2.136-0.468,3c-0.313,0.863-0.732,1.584-1.26,2.159
		c-0.528,0.576-1.145,1.01-1.848,1.297c-0.705,0.287-1.457,0.432-2.256,0.432c-0.177,0-0.438-0.012-0.781-0.035
		s-0.604-0.068-0.779-0.133v2.4h-1.992V18.889z M10.408,17.329c0.08,0,0.188,0,0.324,0s0.284-0.004,0.444-0.012
		c0.16-0.008,0.315-0.023,0.468-0.049c0.152-0.023,0.284-0.051,0.396-0.084V7.225c-0.192-0.032-0.428-0.056-0.708-0.072
		c-0.28-0.016-0.532-0.023-0.756-0.023c-0.544,0-1.052,0.107-1.524,0.324C8.58,7.669,8.167,7.997,7.815,8.437
		c-0.352,0.44-0.628,0.988-0.828,1.645c-0.2,0.656-0.3,1.416-0.3,2.279c0,0.769,0.088,1.461,0.264,2.076
		c0.176,0.616,0.428,1.141,0.756,1.572c0.328,0.432,0.72,0.76,1.176,0.984S9.847,17.329,10.408,17.329z M15.711,7.129
		c-0.224,0-0.512,0.008-0.863,0.023c-0.352,0.017-0.641,0.064-0.863,0.145v9.959c0.159,0.033,0.371,0.053,0.635,0.061
		c0.265,0.008,0.524,0.012,0.78,0.012c0.544,0,1.052-0.104,1.524-0.313c0.472-0.207,0.888-0.527,1.248-0.959
		c0.359-0.432,0.644-0.976,0.852-1.632s0.313-1.424,0.313-2.304c0-0.736-0.084-1.412-0.252-2.028s-0.408-1.147-0.721-1.596
		c-0.312-0.448-0.691-0.788-1.14-1.021C16.775,7.245,16.271,7.129,15.711,7.129z"/>
</g>
</svg>
