<?xml version="1.0" encoding="utf-8"?>
<!-- Generator: Adobe Illustrator 15.1.0, SVG Export Plug-In . SVG Version: 6.00 Build 0)  -->
<!DOCTYPE svg PUBLIC "-//W3C//DTD SVG 1.1//EN" "http://www.w3.org/Graphics/SVG/1.1/DTD/svg11.dtd">
<svg version="1.1" id="Layer_1" xmlns="http://www.w3.org/2000/svg" xmlns:xlink="http://www.w3.org/1999/xlink" x="0px" y="0px"
	 width="132px" height="63px" viewBox="0 0 132 63" enable-background="new 0 0 132 63" xml:space="preserve">
<path d="M0,63V0h132v52H14L0,63z" fill="#68ac02"/>
<g enable-background="new    ">
	<path fill="#FFFFFF" d="M15.572,28.683v-8.32c0-0.82,0.146-1.535,0.439-2.146c0.293-0.609,0.669-1.113,1.128-1.508
		s0.989-0.698,1.589-0.908s1.199-0.339,1.794-0.388v-1.128h2.402l0.029,1.128c0.576,0.039,1.16,0.166,1.75,0.381
		s1.121,0.52,1.589,0.916s0.854,0.899,1.157,1.508c0.303,0.611,0.454,1.326,0.454,2.146v8.32c0,0.82-0.151,1.528-0.454,2.124
		s-0.693,1.094-1.172,1.495c-0.479,0.4-1.013,0.705-1.604,0.914c-0.591,0.211-1.174,0.34-1.75,0.389v1.553h-2.373v-1.553
		c-0.615-0.02-1.218-0.141-1.809-0.365s-1.121-0.537-1.589-0.938c-0.469-0.401-0.85-0.899-1.143-1.495S15.572,29.503,15.572,28.683z
		 M17.857,28.677c0,0.842,0.21,1.507,0.63,1.996s1.108,0.773,2.065,0.852V17.491c-0.781,0.078-1.426,0.362-1.934,0.852
		s-0.762,1.154-0.762,1.996V28.677z M22.926,31.524c0.742-0.039,1.377-0.313,1.904-0.822s0.791-1.184,0.791-2.025v-8.338
		c0-0.842-0.269-1.517-0.806-2.025s-1.167-0.783-1.89-0.822V31.524z"/>
	<path fill="#FFFFFF" d="M28.316,33.895c0.42-0.283,0.767-0.555,1.04-0.813c0.273-0.26,0.488-0.555,0.645-0.887
		c0.156-0.332,0.266-0.738,0.33-1.215c0.063-0.479,0.095-1.079,0.095-1.802v-8.846h7.881v14.824h-2.373V22.413h-3.311v6.856
		c0,0.94-0.055,1.745-0.165,2.415c-0.109,0.671-0.293,1.255-0.553,1.755c-0.259,0.498-0.597,0.924-1.015,1.275
		s-0.924,0.668-1.52,0.951L28.316,33.895z"/>
	<path fill="#FFFFFF" d="M40.694,35.157V20.333h2.314v9.697h0.059l4.351-9.697h2.373v14.824h-2.373v-9.755h-0.059l-4.38,9.755
		H40.694z"/>
	<path fill="#FFFFFF" d="M52.208,35.157V20.362h2.373v6.431h1.021c0.263,0,0.532-0.022,0.81-0.065
		c0.277-0.045,0.54-0.14,0.788-0.286s0.477-0.366,0.686-0.659c0.21-0.293,0.377-0.679,0.504-1.157l1.128-4.263h2.285l-1.166,4.293
		c-0.196,0.725-0.46,1.33-0.793,1.819c-0.332,0.488-0.758,0.816-1.275,0.982c0.661,0.156,1.145,0.495,1.451,1.017
		c0.307,0.522,0.557,1.149,0.752,1.881l1.28,4.802h-2.314l-1.025-4.086c-0.117-0.476-0.266-0.866-0.445-1.172
		s-0.39-0.538-0.628-0.698s-0.503-0.27-0.795-0.327c-0.292-0.059-0.594-0.088-0.905-0.088h-1.357v6.372H52.208z"/>
	<path fill="#FFFFFF" d="M69.566,28.683v-8.32c0-0.82,0.146-1.535,0.439-2.146c0.293-0.609,0.669-1.113,1.128-1.508
		s0.989-0.698,1.589-0.908c0.602-0.21,1.199-0.339,1.795-0.388v-1.128h2.402l0.029,1.128c0.576,0.039,1.159,0.166,1.75,0.381
		s1.121,0.52,1.59,0.916s0.854,0.899,1.157,1.508c0.303,0.611,0.454,1.326,0.454,2.146v8.32c0,0.82-0.151,1.528-0.454,2.124
		s-0.693,1.094-1.172,1.495c-0.479,0.4-1.014,0.705-1.604,0.914c-0.591,0.211-1.174,0.34-1.75,0.389v1.553h-2.373v-1.553
		c-0.615-0.02-1.219-0.141-1.809-0.365c-0.592-0.225-1.121-0.537-1.59-0.938c-0.469-0.401-0.85-0.899-1.143-1.495
		S69.566,29.503,69.566,28.683z M71.852,28.677c0,0.842,0.21,1.507,0.63,1.996s1.108,0.773,2.065,0.852V17.491
		c-0.781,0.078-1.426,0.362-1.934,0.852s-0.762,1.154-0.762,1.996V28.677z M76.92,31.524c0.742-0.039,1.377-0.313,1.904-0.822
		s0.791-1.184,0.791-2.025v-8.338c0-0.842-0.269-1.517-0.806-2.025s-1.167-0.783-1.89-0.822V31.524z"/>
	<path fill="#FFFFFF" d="M82.311,33.895c0.42-0.283,0.767-0.555,1.04-0.813c0.273-0.26,0.488-0.555,0.645-0.887
		c0.156-0.332,0.266-0.738,0.329-1.215c0.063-0.479,0.096-1.079,0.096-1.802v-8.846h7.881v14.824h-2.373V22.413h-3.311v6.856
		c0,0.94-0.055,1.745-0.165,2.415c-0.109,0.671-0.293,1.255-0.553,1.755c-0.259,0.498-0.597,0.924-1.015,1.275
		c-0.417,0.352-0.924,0.668-1.52,0.951L82.311,33.895z"/>
	<path fill="#FFFFFF" d="M94.234,35.157l1.26-4.643c0.116-0.461,0.291-0.904,0.523-1.331s0.538-0.748,0.916-0.964
		c-0.836-0.303-1.419-0.77-1.75-1.4c-0.33-0.631-0.495-1.327-0.495-2.091c0-1.372,0.38-2.447,1.139-3.227
		c0.759-0.778,1.918-1.168,3.475-1.168h4.176v14.824h-2.373v-6.254h-1.296c-0.58,0-1.037,0.162-1.37,0.485
		c-0.334,0.324-0.609,0.937-0.825,1.839l-1.006,3.93H94.234z M97.12,24.86c0,0.649,0.205,1.152,0.615,1.512
		c0.41,0.358,0.996,0.538,1.758,0.538h1.611v-4.497h-1.406c-0.938,0-1.602,0.227-1.992,0.679S97.12,24.134,97.12,24.86z"/>
	<path fill="#FFFFFF" d="M105.763,35.157V20.362h2.373v6.431h1.021c0.263,0,0.532-0.022,0.81-0.065
		c0.277-0.045,0.54-0.14,0.788-0.286s0.477-0.366,0.686-0.659c0.21-0.293,0.377-0.679,0.504-1.157l1.128-4.263h2.285l-1.166,4.293
		c-0.196,0.725-0.46,1.33-0.793,1.819c-0.332,0.488-0.758,0.816-1.275,0.982c0.661,0.156,1.145,0.495,1.451,1.017
		c0.307,0.522,0.557,1.149,0.752,1.881l1.28,4.802h-2.314l-1.025-4.086c-0.117-0.476-0.266-0.866-0.445-1.172
		s-0.39-0.538-0.628-0.698s-0.503-0.27-0.795-0.327c-0.292-0.059-0.594-0.088-0.905-0.088h-1.357v6.372H105.763z"/>
</g>
</svg>
