
<svg width="90px" height="90px" viewBox="0 0 90 90" version="1.1" xmlns="http://www.w3.org/2000/svg" xmlns:xlink="http://www.w3.org/1999/xlink">
	<defs>
		<linearGradient x1="50%" y1="0%" x2="50%" y2="100%" id="linearGradient-1">
			<stop stop-color="#F53E37" offset="0%"></stop>
			<stop stop-color="#B424A6" offset="100%"></stop>
		</linearGradient>
	</defs>
	<g id="Page-1" stroke="none" stroke-width="1" fill="none" fill-rule="evenodd">
		<g id="iconfinder_social-04_1591850">
			<circle id="Oval" cx="45" cy="45" r="45"></circle>
			<path d="M69.9549232,13 L20.6848091,13 C16.4411821,13 13,16.4318054 13,20.6660449 L13,69.9709551 C13,74.2070607 16.4411821,77.637 20.6848091,77.637 L69.9549232,77.637 C74.196684,77.637 77.636,74.2070607 77.636,69.9709551 L77.636,20.6660449 C77.636,16.4336715 74.1985502,13 69.9549232,13 Z M59.4578248,23.1013391 C59.4578248,21.9853958 60.362908,21.0803248 61.4788662,21.0803248 L67.5382579,21.0803248 C68.6542161,21.0803248 69.5592992,21.9853958 69.5592992,23.1013391 L69.5592992,29.1606496 C69.5592992,30.2747267 68.6542161,31.1816639 67.5382579,31.1816639 L61.4788662,31.1816639 C60.362908,31.1816639 59.4578248,30.2765928 59.4578248,29.1606496 L59.4578248,23.1013391 Z M45.392646,32.9955382 C52.2582149,32.9955382 57.8230767,38.5472625 57.8230767,45.3959442 C57.8230767,52.244626 52.2582149,57.7982164 45.392646,57.7982164 C38.5289433,57.7982164 32.9659477,52.244626 32.9659477,45.3959442 C32.9659477,38.5453963 38.5289433,32.9955382 45.392646,32.9955382 Z M71.5784744,69.5585413 C71.5784744,70.6726184 70.6715251,71.5795556 69.5592992,71.5795556 L21.0804331,71.5795556 C19.9644749,71.5795556 19.0593917,70.6744846 19.0593917,69.5585413 L19.0593917,39.2601225 L27.1398248,39.2601225 C26.0873157,40.7754167 25.7327471,43.6007312 25.7327471,45.3940781 C25.7327471,56.2101433 34.5521759,65.0126588 45.392646,65.0126588 C56.2387146,65.0126588 65.0562773,56.2120095 65.0562773,45.3940781 C65.0562773,43.6007312 64.8024808,40.8164715 63.4980413,39.2601225 L71.5784744,39.2601225 L71.5784744,69.5585413 Z" id="Instagram_1_" fill="#FFFFFF" fill-rule="nonzero"></path>
		</g>
	</g>
</svg>
