<?xml version="1.0" encoding="iso-8859-1"?>
<!-- Generator: Adobe Illustrator 19.0.0, SVG Export Plug-In . SVG Version: 6.00 Build 0)  -->
<svg version="1.1" id="Capa_1" xmlns="http://www.w3.org/2000/svg" xmlns:xlink="http://www.w3.org/1999/xlink" x="0px" y="0px"
	 viewBox="0 0 512.001 512.001" style="enable-background:new 0 0 512.001 512.001;" xml:space="preserve">
<g>
	<g>
		<path d="M509.804,237.734l-40.651-40.651c-2.93-2.929-7.678-2.929-10.607,0c-2.929,2.929-2.929,7.678,0,10.606l35.349,35.348
			L453.631,283.3l-81.913-81.913l40.263-40.263l25.671,25.671c2.93,2.929,7.678,2.929,10.607,0c2.929-2.929,2.929-7.678,0-10.606
			l-30.975-30.975c-1.407-1.407-3.314-2.197-5.304-2.197s-3.896,0.79-5.304,2.197l-50.869,50.87
			c-2.592,2.592-2.885,6.607-0.89,9.527l-24.801,24.793c-1.406,1.406-2.197,3.314-2.197,5.304c0,1.99,0.79,3.897,2.196,5.304
			l0.227,0.227l-6.75,6.75c-3.356,3.362-7.365,5.957-11.732,7.667c-0.148-2.018-0.484-4.031-1.052-6.012
			c-0.192-0.671-0.478-1.313-0.847-1.905c-4.115-6.596-10.6-13.96-18.139-11.567c-11.548,3.676-39.021,6.847-77.359,8.927
			c-9.672,0.524-19.192-3.117-26.062-9.994l-6.747-6.747l0.227-0.227c2.929-2.929,2.929-7.678,0-10.606l-24.797-24.797
			c1.991-2.919,1.695-6.93-0.895-9.52l-50.869-50.87c-1.407-1.407-3.314-2.197-5.304-2.197s-3.896,0.79-5.304,2.197l-33.413,33.413
			c-2.929,2.929-2.929,7.678,0,10.606c2.93,2.929,7.678,2.929,10.607,0l28.109-28.11l40.263,40.263l-81.913,81.913L18.107,230.16
			l32.91-32.91c2.929-2.929,2.929-7.678,0-10.606c-2.93-2.929-7.678-2.929-10.607,0L2.197,224.857
			c-2.929,2.929-2.929,7.678,0,10.606l50.869,50.87c1.407,1.407,3.314,2.197,5.304,2.197c1.517,0,2.985-0.462,4.222-1.305
			l24.796,24.796c1.407,1.407,3.314,2.197,5.304,2.197s3.896-0.79,5.304-2.197l0.226-0.226l13.696,13.696
			c0.65,0.65,1.204,1.45,1.579,2.265c0.388,0.857,0.627,1.805,0.692,2.731c0.656,9.449,4.704,18.339,11.398,25.034l37.066,37.066
			l-20.769,20.762c-8.744,8.759-8.744,23.01,0.027,31.795l1.103,1.093c4.241,4.249,9.884,6.588,15.889,6.588
			c1.092,0,2.173-0.078,3.235-0.23c0.914,3.866,2.876,7.533,5.888,10.544l1.578,1.567c4.179,4.187,9.737,6.492,15.653,6.492
			c0.718,0,1.431-0.034,2.136-0.101c0.863,4.111,2.896,7.887,5.935,10.924l1.971,1.971c5.805,5.805,14.095,7.652,21.488,5.552
			c1.049,2.913,2.737,5.583,4.991,7.837l2.75,2.75c4.029,4.028,9.384,6.247,15.078,6.247c5.697,0,11.051-2.22,15.066-6.245
			l8.679-8.673c2.857,1.336,5.943,2.028,9.04,2.028c5.46,0,10.926-2.079,15.093-6.237l2.739-2.75
			c2.255-2.255,3.943-4.925,4.992-7.836c7.393,2.104,15.685,0.252,21.489-5.554l1.969-1.969c3.041-3.041,5.076-6.819,5.938-10.932
			c6.369,0.608,12.922-1.509,17.765-6.351l1.623-1.612c3.004-3.009,4.96-6.675,5.87-10.541c6.778,0.976,13.917-1.137,19.115-6.335
			l1.129-1.129c8.755-8.754,8.757-23.007-0.001-31.779l-7.88-7.879l24.183-24.183c6.694-6.695,10.742-15.589,11.397-25.038
			c0.066-0.938,0.299-1.855,0.678-2.694c0.396-0.864,0.939-1.647,1.593-2.307l13.696-13.689l0.228,0.227
			c1.465,1.464,3.384,2.197,5.304,2.197c1.919,0,3.838-0.732,5.303-2.196l24.804-24.796c1.268,0.864,2.74,1.3,4.214,1.3
			c1.919,0,3.839-0.732,5.304-2.197l50.869-50.869C512.733,245.412,512.733,240.663,509.804,237.734z M92.927,295.875
			c-0.003,0.003-0.007,0.006-0.01,0.009s-0.006,0.007-0.009,0.01l-0.216,0.216l-19.399-19.397l73.283-73.283l19.398,19.397
			l-0.222,0.222c-0.002,0.002-0.003,0.003-0.005,0.005c-0.002,0.002-0.003,0.003-0.005,0.005L92.927,295.875z M168.006,431.816
			c-0.002,0.002-0.003,0.003-0.004,0.005l-3.813,3.815c-1.414,1.411-3.292,2.189-5.287,2.189c-1.993,0-3.866-0.776-5.301-2.213
			l-1.103-1.093c-2.91-2.915-2.91-7.657-0.005-10.566l20.766-20.758l11.684,11.684L168.006,431.816z M193.331,451.081
			c-0.002,0.002-0.003,0.003-0.005,0.005l-3.019,3.019c-1.35,1.349-3.144,2.093-5.051,2.093c-1.904,0-3.693-0.742-5.061-2.111
			l-1.582-1.572c-2.777-2.777-2.778-7.301-0.005-10.089c0.001-0.002,0.003-0.003,0.005-0.005l16.937-16.936l11.692,11.692
			L193.331,451.081z M221.774,467.237l-6.143,6.143c-2.687,2.681-7.051,2.683-9.728,0.005l-1.971-1.971
			c-1.296-1.296-2.011-3.023-2.011-4.861c0-1.838,0.715-3.565,2.012-4.862l13.915-13.908l11.687,11.687L221.774,467.237z
			 M244.062,489.53c-1.19,1.192-2.773,1.848-4.457,1.848c-1.688,0-3.275-0.658-4.471-1.854l-2.751-2.75
			c-1.194-1.195-1.853-2.782-1.853-4.47c0-1.682,0.653-3.261,1.84-4.45l0.014-0.013l0.001-0.001l0.001-0.001l7.756-7.763
			l11.69,11.69L244.062,489.53z M359.506,421.635l-1.13,1.13c-2.909,2.91-7.65,2.907-10.556,0.007l-3.819-3.83
			c-0.001-0.001-0.001-0.001-0.003-0.002c-0.021-0.022-0.045-0.04-0.067-0.061l-84.576-84.577c-2.929-2.929-7.677-2.93-10.607,0
			c-2.929,2.929-2.929,7.678,0,10.606l84.635,84.635c0.014,0.014,0.029,0.025,0.043,0.039c2.74,2.791,2.727,7.293-0.019,10.044
			l-1.619,1.608c-2.78,2.781-7.311,2.778-10.093,0l-2.989-2.99c-0.011-0.011-0.021-0.024-0.032-0.036l-89.441-89.441
			c-2.93-2.929-7.678-2.929-10.607,0c-2.929,2.929-2.929,7.678,0,10.606l89.42,89.42c0.008,0.008,0.015,0.017,0.023,0.025
			c1.297,1.297,2.012,3.022,2.012,4.857c0,1.835-0.715,3.56-2.012,4.857l-1.97,1.97c-2.678,2.678-7.042,2.677-9.724,0l-6.117-6.117
			c-0.01-0.01-0.018-0.021-0.028-0.03l-75.465-75.464c-2.93-2.929-7.678-2.929-10.607,0c-2.929,2.929-2.929,7.678,0,10.606
			l75.443,75.442c0.006,0.007,0.012,0.014,0.018,0.02c1.195,1.195,1.854,2.781,1.854,4.466s-0.658,3.271-1.864,4.477l-2.734,2.745
			c-2.47,2.464-6.479,2.465-8.925,0.019l-0.192-0.192c-0.003-0.003-0.006-0.007-0.009-0.01c-0.003-0.003-0.007-0.006-0.01-0.009
			l-131.545-131.54c-4.136-4.135-6.637-9.628-7.042-15.475c-0.192-2.724-0.86-5.368-2.009-7.908
			c-1.147-2.493-2.701-4.729-4.619-6.647l-13.697-13.697l62.223-62.223l6.743,6.743c9.875,9.886,23.542,15.125,37.483,14.369
			c26.616-1.444,61.186-4.137,78.536-8.859c0.847,0.89,1.922,2.236,2.825,3.551c0.567,2.669,0.376,5.422-0.568,8.023
			c-1.127,3.107-3.282,5.746-6.095,7.476l-40.24,16.299c-2.332,0.944-4.034,2.994-4.535,5.459c-0.5,2.465,0.269,5.017,2.047,6.795
			l99.072,99.072l13.184,13.173C362.415,413.984,362.417,418.725,359.506,421.635z M389.456,327.775
			c-1.924,1.939-3.474,4.177-4.621,6.685c-1.128,2.496-1.796,5.138-1.987,7.859c-0.404,5.844-2.905,11.34-7.041,15.475
			l-24.183,24.183l-85.767-85.758l30.268-12.26c0.313-0.126,0.618-0.274,0.911-0.443c4.697-2.689,8.535-6.617,11.144-11.293
			c9.816-1.78,18.93-6.528,26.024-13.632l6.746-6.746l62.222,62.222L389.456,327.775z M419.311,308.992l-0.221-0.221
			c-0.002-0.002-0.003-0.003-0.005-0.005s-0.003-0.003-0.005-0.005l-72.817-72.817c-0.003-0.003-0.006-0.007-0.009-0.01
			s-0.007-0.006-0.01-0.009l-0.216-0.216l19.403-19.396l73.283,73.283L419.311,308.992z"/>
	</g>
</g>
<g>
	<g>
		<path d="M369.796,48.735c-1.494-3.864-5.837-5.788-9.7-4.292c-3.863,1.493-5.785,5.836-4.292,9.699
			c6.647,17.199,3.654,36.866-7.811,51.327c-1.124,1.418-1.697,3.194-1.615,5.001l1.046,22.954l-20.818-9.73
			c-1.639-0.766-3.5-0.914-5.238-0.417c-18.886,5.401-39.646-0.442-52.913-14.914c-0.919-0.992-1.854-2.102-2.785-3.309
			c-0.308-0.397-0.59-0.78-0.872-1.163c10.254-19.785,9.759-42.89-0.009-61.851c0.286-0.39,0.558-0.784,0.857-1.169
			c1.04-1.334,2.141-2.618,3.261-3.806c2.692-2.843,5.721-5.399,8.994-7.593c19.193-12.834,44.959-11.454,62.657,3.357
			c3.177,2.658,7.907,2.238,10.565-0.938c2.658-3.177,2.238-7.907-0.938-10.565c-22.776-19.06-55.93-20.835-80.628-4.318
			c-4.202,2.816-8.085,6.094-11.552,9.754c-0.683,0.725-1.355,1.476-2.017,2.244c-3.87-4.491-8.385-8.548-13.546-12.001
			c-14.949-9.997-32.893-13.574-50.529-10.074S159.056,20.59,149.06,35.537c-15.79,23.607-15.107,54.175,1.454,76.959l-1.483,32.629
			c-0.119,2.622,1.141,5.115,3.322,6.575c1.255,0.839,2.709,1.266,4.171,1.266c1.08,0,2.164-0.233,3.175-0.706l29.589-13.83
			c24.715,5.961,50.341-2.455,66.711-21.506c0.476,0.554,0.952,1.094,1.422,1.602c12.835,14,31.146,21.726,49.783,21.724
			c5.179,0,10.385-0.597,15.503-1.821l29.597,13.833c1.011,0.473,2.095,0.706,3.175,0.706c1.462,0,2.916-0.427,4.171-1.266
			c2.182-1.459,3.441-3.953,3.322-6.575l-1.487-32.632C374.793,94.135,378.004,69.974,369.796,48.735z M248.504,102.047
			c-12.688,18.971-35.95,27.498-57.868,21.229c-1.741-0.499-3.601-0.35-5.239,0.416l-20.817,9.729l1.043-22.955
			c0.082-1.807-0.491-3.583-1.615-5c-14.173-17.868-15.168-42.619-2.479-61.59c7.769-11.616,19.596-19.511,33.303-22.232
			c3.43-0.68,6.874-1.017,10.293-1.017c10.247,0,20.267,3.021,28.977,8.846C258.081,45.511,264.542,78.068,248.504,102.047z"/>
	</g>
</g>
<g>
	<g>
		<path d="M183.734,67.74c-4.143,0-7.5,3.358-7.5,7.5v1.03c0,4.142,3.357,7.5,7.5,7.5s7.5-3.358,7.5-7.5v-1.03
			C191.234,71.098,187.877,67.74,183.734,67.74z"/>
	</g>
</g>
<g>
	<g>
		<path d="M204.972,67.74c-4.143,0-7.5,3.358-7.5,7.5v1.03c0,4.142,3.357,7.5,7.5,7.5s7.5-3.358,7.5-7.5v-1.03
			C212.472,71.098,209.115,67.74,204.972,67.74z"/>
	</g>
</g>
<g>
	<g>
		<path d="M226.211,67.74c-4.143,0-7.5,3.358-7.5,7.5v1.03c0,4.142,3.358,7.5,7.5,7.5c4.143,0,7.5-3.358,7.5-7.5v-1.03
			C233.711,71.098,230.354,67.74,226.211,67.74z"/>
	</g>
</g>
<g>
	<g>
		<path d="M287.619,67.739c-4.143,0-7.5,3.358-7.5,7.5v1.03c0,4.142,3.357,7.5,7.5,7.5s7.5-3.358,7.5-7.5v-1.03
			C295.119,71.097,291.762,67.739,287.619,67.739z"/>
	</g>
</g>
<g>
	<g>
		<path d="M308.858,67.739c-4.143,0-7.5,3.358-7.5,7.5v1.03c0,4.142,3.357,7.5,7.5,7.5s7.5-3.358,7.5-7.5v-1.03
			C316.358,71.097,313.001,67.739,308.858,67.739z"/>
	</g>
</g>
<g>
	<g>
		<path d="M330.096,67.739c-4.143,0-7.5,3.358-7.5,7.5v1.03c0,4.142,3.357,7.5,7.5,7.5s7.5-3.358,7.5-7.5v-1.03
			C337.596,71.097,334.239,67.739,330.096,67.739z"/>
	</g>
</g>
<g>
</g>
<g>
</g>
<g>
</g>
<g>
</g>
<g>
</g>
<g>
</g>
<g>
</g>
<g>
</g>
<g>
</g>
<g>
</g>
<g>
</g>
<g>
</g>
<g>
</g>
<g>
</g>
<g>
</g>
</svg>
