<?xml version="1.0" encoding="iso-8859-1"?>
<!-- Generator: Adobe Illustrator 19.0.0, SVG Export Plug-In . SVG Version: 6.00 Build 0)  -->
<svg version="1.1" id="Capa_1" xmlns="http://www.w3.org/2000/svg" xmlns:xlink="http://www.w3.org/1999/xlink" x="0px" y="0px"
	 viewBox="0 0 496 496" style="enable-background:new 0 0 496 496;" xml:space="preserve">
<g>
	<g>
		<path d="M488,240h-24H338.36l8.352-32H368c17.648,0,32-14.352,32-32v-48c0-15-10.408-27.52-24.352-30.976l9.064-34.736L382.4,59.2
			c-1.032-1.384-25.088-32.504-86.4-35.04V0h-96v24.168c-61.312,2.528-85.368,33.648-86.4,35.032l-2.32,3.088L120.08,96H32H8H0v64h8
			h24h104.768l8.352,32H136c-17.648,0-32,14.352-32,32v48c0,17.648,14.352,32,32,32h4.664c-3.04,14.168-4.664,27.608-4.664,40v4.944
			l4.424,2.208c1.216,0.608,27.248,13.256,83.576,16.216V496h16V367.888c2.648,0.048,5.24,0.112,8,0.112s5.352-0.064,8-0.112V496h16
			V367.368c56.328-2.96,82.36-15.608,83.576-16.216l4.424-2.208V344c0-12.392-1.624-25.832-4.664-40H464h24h8v-64H488z M368,192
			h-17.12l8.352-32H368c8.816,0,16,7.176,16,16C384,184.816,376.816,192,368,192z M208,40h8V16h64v24h8
			c48.552,0,72.032,18.944,79.176,26.128L359.376,96H136.624l-7.8-29.872C136.016,58.904,159.488,40,208,40z M32,144H16v-32h16
			c8.816,0,16,7.176,16,16C48,136.816,40.816,144,32,144z M59.552,144C62.304,139.272,64,133.856,64,128s-1.696-11.272-4.448-16H368
			c8.816,0,16,7.176,16,16v20.296c-4.712-2.736-10.184-4.296-16-4.296H59.552z M136,208h13.296l8.352,32H136
			c-8.816,0-16-7.184-16-16C120,215.176,127.184,208,136,208z M248,352c-54.008,0-84.976-9.272-95.896-13.312
			c0.408-10.768,2.12-22.416,4.952-34.688h181.896c2.832,12.264,4.536,23.92,4.952,34.688C332.952,342.736,301.992,352,248,352z
			 M436.448,288H136c-8.816,0-16-7.184-16-16v-20.448c4.728,2.752,10.144,4.448,16,4.448h152v-16H174.184l-20.872-80h189.376
			l-20.872,80H304v16h132.448c-2.752,4.728-4.448,10.144-4.448,16C432,277.856,433.696,283.272,436.448,288z M480,288h-16
			c-8.824,0-16-7.184-16-16c0-8.824,7.176-16,16-16h16V288z"/>
	</g>
</g>
<g>
</g>
<g>
</g>
<g>
</g>
<g>
</g>
<g>
</g>
<g>
</g>
<g>
</g>
<g>
</g>
<g>
</g>
<g>
</g>
<g>
</g>
<g>
</g>
<g>
</g>
<g>
</g>
<g>
</g>
</svg>
