
<svg width="475px" height="474px" viewBox="0 0 475 474" version="1.1" xmlns="http://www.w3.org/2000/svg" xmlns:xlink="http://www.w3.org/1999/xlink">
	<radialGradient cx="1.82641464%" cy="90.8289542%" fx="1.82641464%" fy="90.8289542%" r="144.577385%" id="myBg">
		<stop stop-color="#FED576" offset="0%"></stop>
		<stop stop-color="#F47133" offset="26.34%"></stop>
		<stop stop-color="#BC3081" offset="60.91%"></stop>
		<stop stop-color="#4C63D2" offset="100%"></stop>
	</radialGradient>
	<path d="M-2.84217094e-14,230.6968 L-2.84217094e-14,243.4968 C3.3,365.8968 101.9,464.1968 219.2,473.3968 L255.3,473.3968 C373.3,464.0968 470.2,364.8968 473.4,243.2968 L473.4,230.6968 C470.2,106.8968 369.9,6.49680034 249.1,0.296800337 C119.1,-6.30319966 3.6,97.9968003 -2.84217094e-14,230.6968 Z" id="Path" fill="url('#myBg')"></path>
	<path d="M237.8,118.8968 C275.5,118.8968 280,118.9968 294.9,119.6968 C308.7,120.2968 316.1,122.6968 321.1,124.5968 C327.7,127.1968 332.4,130.2968 337.3,135.2968 C342.2,140.2968 345.3,145.0968 347.9,151.7968 C349.8,156.8968 352.1,164.4968 352.8,178.4968 C353.5,193.6968 353.6,198.1968 353.6,236.5968 C353.6,274.9968 353.5,279.4968 352.8,294.6968 C352.2,308.6968 349.9,316.2968 347.9,321.3968 C345.3,328.0968 342.3,332.8968 337.3,337.8968 C332.4,342.8968 327.7,345.9968 321.1,348.5968 C316.1,350.5968 308.6,352.8968 294.9,353.4968 C280,354.1968 275.5,354.2968 237.8,354.2968 C200.1,354.2968 195.6,354.1968 180.7,353.4968 C166.9,352.8968 159.5,350.4968 154.5,348.5968 C147.9,345.9968 143.2,342.8968 138.3,337.8968 C133.4,332.8968 130.3,328.0968 127.7,321.3968 C125.8,316.2968 123.5,308.6968 122.8,294.6968 C122.1,279.4968 122,274.9968 122,236.5968 C122,198.1968 122.1,193.6968 122.8,178.4968 C123.4,164.4968 125.7,156.8968 127.7,151.7968 C130.3,145.0968 133.3,140.2968 138.3,135.2968 C143.2,130.2968 147.9,127.1968 154.5,124.5968 C159.5,122.5968 167,120.2968 180.7,119.6968 C195.6,119.0968 200.1,118.8968 237.8,118.8968 L237.8,118.8968 Z M237.8,92.9968003 C199.4,92.9968003 194.6,93.1968003 179.6,93.8968003 C164.6,94.5968003 154.3,96.9968003 145.3,100.5968 C136,104.2968 128.1,109.1968 120.3,117.1968 C112.4,125.1968 107.6,133.1968 104,142.6968 C100.5,151.7968 98.1,162.2968 97.4,177.5968 C96.7,192.8968 96.6,197.7968 96.6,236.7968 C96.6,275.7968 96.8,280.6968 97.4,295.9968 C98.1,311.2968 100.5,321.6968 104,330.8968 C107.6,340.2968 112.4,348.3968 120.3,356.3968 C128.2,364.3968 136,369.2968 145.3,372.9968 C154.3,376.5968 164.6,378.9968 179.6,379.6968 C194.7,380.3968 199.5,380.5968 237.8,380.5968 C276.1,380.5968 281,380.3968 296,379.6968 C311,378.9968 321.3,376.5968 330.3,372.9968 C339.6,369.2968 347.5,364.3968 355.3,356.3968 C363.2,348.3968 368,340.3968 371.6,330.8968 C375.1,321.7968 377.5,311.2968 378.2,295.9968 C378.9,280.6968 379,275.7968 379,236.7968 C379,197.7968 378.8,192.8968 378.2,177.5968 C377.5,162.2968 375.1,151.8968 371.6,142.6968 C368,133.2968 363.2,125.1968 355.3,117.1968 C347.4,109.1968 339.6,104.2968 330.3,100.5968 C321.3,96.9968003 311,94.5968003 296,93.8968003 C281,93.1968003 276.1,92.9968003 237.8,92.9968003 L237.8,92.9968003 Z" id="Shape" fill="#FFFFFF"></path>
	<path d="M237.8,162.8968 C197.7,162.8968 165.3,195.8968 165.3,236.6968 C165.3,277.4968 197.8,310.4968 237.8,310.4968 C277.8,310.4968 310.3,277.4968 310.3,236.6968 C310.3,195.8968 277.8,162.8968 237.8,162.8968 Z M237.8,284.5968 C211.8,284.5968 190.7,263.1968 190.7,236.6968 C190.7,210.1968 211.8,188.7968 237.8,188.7968 C263.8,188.7968 284.9,210.1968 284.9,236.6968 C284.9,263.1968 263.8,284.5968 237.8,284.5968 Z" id="Shape" fill="#FFFFFF"></path>
	<ellipse id="Oval" fill="#FFFFFF" cx="313.2" cy="159.9968" rx="16.9" ry="17.2"></ellipse>
</svg>
