<svg height="497pt" viewBox="0 0 497.456 497" width="497pt" xmlns="http://www.w3.org/2000/svg"><path d="m481.425781 384.234375-13.882812-10.992187c4.351562-28.414063 13.792969-55.957032 28.128906-81.054688l-13.886719-7.933594c-13.808594 24.167969-23.410156 50.453125-28.585937 77.636719l-44.472657-35.199219v-78.464844h88.730469l-14.023437-161.277343c-1.9375-22.265625-16.882813-41.210938-38.082032-48.28125l-115.328124-38.441407h-41.296876v8c0 22.058594-17.941406 40-40 40-22.054687 0-40-17.941406-40-40v-8h-41.292968l-115.328125 38.441407c-21.203125 7.0625-36.144531 26.015625-38.082031 48.28125l-14.023438 161.277343h88.726562v248h320v-24.902343c24.328126-2.769531 37.992188-11.335938 43.195313-15.351563 1.46875.167969 2.957031.253906 4.453125.253906 22.25 0 40.351562-18.101562 40.351562-40.351562 0-12.398438-5.574218-23.933594-15.300781-31.640625zm-88.699219 95.992187h-288v-360h-16v112h-71.269531l1.390625-16h53.878906v-16h-52.488281l9.730469-111.894531c1.382812-15.894531 12.054688-29.433593 27.199219-34.480469l104.296875-34.765624c5.375 43.40625 42.421875 77.140624 87.261718 77.140624 32.808594 0 62.671876-18.054687 77.953126-47.125l-14.167969-7.449218c-12.496094 23.800781-36.945313 38.574218-63.785157 38.574218-36.992187 0-67.527343-28.054687-71.527343-64h16.097656c3.894531 27.105469 27.261719 48 55.429687 48 28.167969 0 51.539063-20.894531 55.433594-48h15.96875c-.511718 4.617188-1.304687 9.183594-2.695312 13.601563l15.261718 4.800781c1.59375-5.066406 2.65625-10.273437 3.304688-15.542968l104.28125 34.757812c15.144531 5.046875 25.824219 18.585938 27.199219 34.480469l9.734375 111.902343h-52.488282v16h53.882813l1.390625 16h-71.273438v-112h-16v193.792969l-86.605468-68.558593 24.605468-26.847657c9.035157-9.855469 14-22.632812 14-35.984375v-1.144531c0-29.367187-23.886718-53.257813-53.253906-53.257813-14.226562 0-27.601562 5.539063-37.65625 15.601563l-5.089844 5.085937-5.085937-5.085937c-10.066406-10.0625-23.433594-15.601563-37.65625-15.601563-29.367187 0-53.257813 23.890626-53.257813 53.257813v1.144531c0 13.351563 4.96875 26.136719 14 35.984375l82 89.453125 38.007813-41.460937 105.992187 133.878906v55.742187c-19.886718 0-37.03125-7.550781-56.886718-16.300781-25.214844-11.105469-53.792969-23.699219-95.113282-23.699219v16c37.953126 0 63.730469 11.363282 88.664063 22.335938 20.609375 9.089844 40.082031 17.664062 63.335937 17.664062zm-144-195.839843-70.207031-76.589844c-6.3125-6.890625-9.792969-15.832031-9.792969-25.167969v-1.144531c0-20.542969 16.714844-37.257813 37.257813-37.257813 9.953125 0 19.3125 3.875 26.34375 10.914063l16.398437 16.398437 16.402344-16.398437c7.039063-7.039063 16.390625-10.914063 26.34375-10.914063 20.542969 0 37.253906 16.714844 37.253906 37.257813v1.144531c0 9.335938-3.480468 18.277344-9.789062 25.167969zm160 170.816406v-34.503906l16.007813 20.226562c2.386719 3.007813 5.160156 5.558594 8.1875 7.734375-5.546875 2.519532-13.507813 5.144532-24.195313 6.542969zm47.648438-14.976563c-7.488281 0-14.445312-3.367187-19.085938-9.230468l-129.984374-164.191406 143.160156 113.335937c-1.089844 9.472656-1.738282 19.007813-1.738282 28.582031v8.25l16-.746094v-7.503906c0-5.605468.25-11.199218.648438-16.78125l6.121094 4.839844c5.863281 4.648438 9.230468 11.613281 9.230468 19.09375 0 13.425781-10.925781 24.351562-24.351562 24.351562zm0 0"/></svg>